#N canvas 44 113 1219 856 10;
#X obj 19 27 dumpOSC 8338;
#X obj 20 93 route /found;
#X floatatom 20 128 5 0 0 0 - - -;
#X obj 34 57 s oscdata;
#X obj 19 239 route /pose/orientation;
#X obj 19 261 unpack f f f;
#X obj 18 216 r oscdata;
#X floatatom 20 289 5 0 0 0 - - -;
#X floatatom 53 311 5 0 0 0 - - -;
#X floatatom 88 330 5 0 0 0 - - -;
#X obj 303 46 route /gesture/mouth/width;
#X floatatom 303 70 5 0 0 0 - - -;
#X obj 303 24 r oscdata;
#X obj 16 364 r oscdata;
#X floatatom 18 437 5 0 0 0 - - -;
#X floatatom 73 455 5 0 0 0 - - -;
#X obj 17 387 route /pose/position;
#X obj 19 523 r oscdata;
#X obj 20 546 route /pose/scale;
#X floatatom 20 569 5 0 0 0 - - -;
#X obj 17 409 unpack f f;
#X floatatom 479 168 5 0 0 0 - - -;
#X obj 547 201 max;
#X floatatom 474 230 5 0 0 0 - - -;
#X floatatom 544 232 5 0 0 0 - - -;
#X obj 479 200 min;
#X obj 537 130 bng 15 250 50 0 empty empty empty 17 7 0 10 -262144
-1 -1;
#X msg 540 156 0;
#X obj 308 339 hsl 128 15 0 1 0 0 empty empty empty -2 -8 0 10 -262144
-1 -1 12700 1;
#N canvas 740 247 450 296 map 0;
#X obj 75 114 inlet;
#X obj 226 114 inlet;
#X obj 150 114 inlet;
#X obj 302 114 inlet;
#X obj 378 114 inlet;
#X obj 75 286 outlet;
#X obj 150 140 float \$1;
#X obj 226 140 float \$2;
#X obj 302 140 float \$3;
#X obj 378 140 float \$4;
#X text 306 275 by Adrian Rennertz;
#X obj 371 87 loadbang;
#X obj 75 177 expr if($f2 == $f3 \, -1 \, (((($f1-$f2) / ($f3-$f2))
* ($f5-$f4)) + $f4)) \; $f4 \; $f5 \;;
#X obj 75 265 limit;
#X msg 371 240 0;
#X text 70 18 inlets are (from left to right) input_value - input_range_low
- input_range_high - output_range_low - output_range_high. low and
high can be switched to invert the value. values that exceed the output
range will output the treshold.;
#X connect 0 0 12 0;
#X connect 1 0 7 0;
#X connect 2 0 6 0;
#X connect 3 0 8 0;
#X connect 4 0 9 0;
#X connect 6 0 12 1;
#X connect 7 0 12 2;
#X connect 8 0 12 3;
#X connect 9 0 12 4;
#X connect 11 0 9 0;
#X connect 11 0 8 0;
#X connect 11 0 7 0;
#X connect 11 0 6 0;
#X connect 11 0 14 0;
#X connect 12 0 13 0;
#X connect 12 1 13 1;
#X connect 12 2 13 2;
#X connect 13 0 5 0;
#X connect 14 0 13 3;
#X restore 309 310 pd map;
#X obj 379 244 loadbang;
#X text 612 236 11 -20;
#X msg 341 276 15;
#X floatatom 258 337 5 0 0 0 - - -;
#X obj 853 589 gemwin;
#X msg 850 504 create \, 1;
#X msg 921 504 0 \, destroy;
#X text 474 85 Data received from mouth;
#X text 612 216 high low values;
#X text 1050 557 play video;
#X obj 947 551 loadbang;
#X obj 724 480 gemhead;
#X obj 724 460 tgl 15 0 empty empty empty 17 7 0 10 -262144 -1 -1 1
1;
#X obj 724 589 pix_film;
#X msg 751 568 open \$1;
#X obj 752 545 openpanel;
#X obj 751 522 bng 15 250 50 0 empty empty empty 17 7 0 10 -262144
-1 -1;
#X obj 751 640 unpack f f f;
#X floatatom 746 671 5 0 0 0 - - -;
#X floatatom 788 674 5 0 0 0 - - -;
#X floatatom 829 675 5 0 0 0 - - -;
#X obj 724 724 pix_texture;
#X obj 724 750 rectangle 6 4;
#X msg 397 274 0;
#X msg 369 276 31;
#X msg 307 275 12;
#X text 733 504 choose video;
#X msg 947 571 dimen 320 240;
#X text 456 339 translate values to corresponding frames;
#X obj 237 1175 gemwin;
#X msg 234 1090 create \, 1;
#X msg 305 1090 0 \, destroy;
#X text 434 1143 play video;
#X obj 331 1137 loadbang;
#X msg 331 1157 dimen 320 240;
#X connect 0 0 1 0;
#X connect 0 0 3 0;
#X connect 1 0 2 0;
#X connect 4 0 5 0;
#X connect 5 0 7 0;
#X connect 5 1 8 0;
#X connect 5 2 9 0;
#X connect 6 0 4 0;
#X connect 10 0 11 0;
#X connect 10 0 21 0;
#X connect 10 0 29 0;
#X connect 12 0 10 0;
#X connect 13 0 16 0;
#X connect 16 0 20 0;
#X connect 17 0 18 0;
#X connect 18 0 19 0;
#X connect 20 0 14 0;
#X connect 20 1 15 0;
#X connect 21 0 22 0;
#X connect 21 0 25 0;
#X connect 22 0 24 0;
#X connect 23 0 25 1;
#X connect 24 0 22 1;
#X connect 25 0 23 0;
#X connect 26 0 27 0;
#X connect 27 0 25 1;
#X connect 27 0 22 1;
#X connect 29 0 28 0;
#X connect 29 0 33 0;
#X connect 30 0 53 0;
#X connect 30 0 54 0;
#X connect 30 0 32 0;
#X connect 30 0 55 0;
#X connect 32 0 29 2;
#X connect 35 0 34 0;
#X connect 36 0 34 0;
#X connect 40 0 57 0;
#X connect 41 0 43 0;
#X connect 42 0 41 0;
#X connect 43 0 51 0;
#X connect 43 1 47 0;
#X connect 44 0 43 0;
#X connect 45 0 44 0;
#X connect 46 0 45 0;
#X connect 47 0 48 0;
#X connect 47 1 49 0;
#X connect 47 2 50 0;
#X connect 51 0 52 0;
#X connect 53 0 29 4;
#X connect 54 0 29 3;
#X connect 55 0 29 1;
#X connect 57 0 34 0;
#X connect 60 0 59 0;
#X connect 61 0 59 0;
#X connect 63 0 64 0;
#X connect 64 0 59 0;
